<svg width="20" height="20" viewBox="0 0 20 20" fill="none" xmlns="http://www.w3.org/2000/svg">
<path d="M13.5335 6.46667L12.0301 10.9758C11.9483 11.2213 11.8105 11.4444 11.6275 11.6274C11.4445 11.8103 11.2214 11.9482 10.976 12.03L6.4668 13.5333L7.97013 9.02417C8.05195 8.77868 8.1898 8.55562 8.37278 8.37265C8.55575 8.18967 8.77881 8.05182 9.0243 7.97L13.5335 6.46667Z" stroke="#9810FA" stroke-width="1.66667" stroke-linecap="round" stroke-linejoin="round"/>
<path d="M9.99984 18.3333C14.6022 18.3333 18.3332 14.6024 18.3332 10C18.3332 5.39763 14.6022 1.66667 9.99984 1.66667C5.39746 1.66667 1.6665 5.39763 1.6665 10C1.6665 14.6024 5.39746 18.3333 9.99984 18.3333Z" stroke="#9810FA" stroke-width="1.66667" stroke-linecap="round" stroke-linejoin="round"/>
</svg>
