<svg width="20" height="20" viewBox="0 0 20 20" fill="none" xmlns="http://www.w3.org/2000/svg">
<path d="M13.5332 6.46667L12.0299 10.9758C11.9481 11.2213 11.8102 11.4444 11.6272 11.6274C11.4443 11.8103 11.2212 11.9482 10.9757 12.03L6.46655 13.5333L7.96989 9.02417C8.0517 8.77868 8.18956 8.55562 8.37253 8.37265C8.5555 8.18967 8.77857 8.05182 9.02405 7.97L13.5332 6.46667Z" stroke="#45556C" stroke-width="1.66667" stroke-linecap="round" stroke-linejoin="round"/>
<path d="M10.0001 18.3333C14.6025 18.3333 18.3334 14.6024 18.3334 10C18.3334 5.39763 14.6025 1.66667 10.0001 1.66667C5.39771 1.66667 1.66675 5.39763 1.66675 10C1.66675 14.6024 5.39771 18.3333 10.0001 18.3333Z" stroke="#45556C" stroke-width="1.66667" stroke-linecap="round" stroke-linejoin="round"/>
</svg>
